<?xml version="1.0" encoding="utf-8"?>
<svg version="1.1" xmlns="http://www.w3.org/2000/svg" xmlns:xlink="http://www.w3.org/1999/xlink" x="0px" y="0px"
	 viewBox="0 0 800 160" style="enable-background:new 0 0 800 160;" xml:space="preserve">
<style type="text/css">
	.st0{fill:#A1C8ED;}
	.st1{fill:#D9EBFF;}
	.st2{fill:#B5CDE2;}
	.st3{fill:#1B72C1;}
	.st4{fill:#2B8AE0;}
	.st5{fill:#499CE8;}
	.st6{fill:#EFEFEF;}
</style>
<g>
	<path class="st0" d="M800,146.2V160H0v-13.8c57.7-23.1,137.1-41,229-51c10.1-1.1,20.3-2.1,30.6-3c8-0.7,16-1.3,24.2-1.9
		c6-0.4,12-0.8,18-1.2c31.7-1.9,64.6-2.9,98.2-2.9C563.6,86.3,708.8,109.8,800,146.2z"/>
	<g>
		<path class="st1" d="M259.7,92.2L220.5,160h-28.9L229,95.3C239.1,94.1,249.3,93.1,259.7,92.2z"/>
		<path class="st1" d="M301.8,89.1L260.9,160h-17.3l40.2-69.7C289.8,89.9,295.8,89.5,301.8,89.1z"/>
	</g>
</g>
<g>
	<path class="st2" d="M460,43.9v72.1c0,4.4-2.4,8.3-6,10.4c-1.7,1-3.8,1.6-5.9,1.6h-96.1c-2.2,0-4.2-0.5-5.9-1.6
		c-3.6-2-6-5.9-6-10.4V43.9c0-4.4,2.4-8.3,6-10.4c1.7-1,3.8-1.6,5.9-1.6h96.1c2.2,0,4.2,0.5,5.9,1.6C457.6,35.6,460,39.5,460,43.9z"
		/>
	<g>
        <path class="st3" d="M346,33.6v92.9c-3.6-2-6-5.9-6-10.4V43.9C340,39.5,342.4,35.6,346,33.6z"/>
        <path class="st4" d="M358,32v96h-6.1c-2.2,0-4.2-0.5-5.9-1.6V33.6c1.7-1,3.8-1.6,5.9-1.6H358z"/>
        <rect x="358" y="32" class="st5" width="6" height="96"/>
	</g>
	<g>
        <rect x="436" y="32" class="st3" width="6" height="96"/>
        <path class="st4" d="M454,33.6v92.9c-1.7,1-3.8,1.6-5.9,1.6H442V32h6.1C450.2,32,452.3,32.5,454,33.6z"/>
        <path class="st5" d="M460,43.9v72.1c0,4.4-2.4,8.3-6,10.4V33.6C457.6,35.6,460,39.5,460,43.9z"/>
	</g>
	<g>
        <rect x="388" y="32" class="st3" width="6" height="96"/>
        <rect x="394" y="32" class="st4" width="12" height="96"/>
        <rect x="406" y="32" class="st5" width="6" height="96"/>
	</g>
    <path class="st4" d="M454,116v10.4c-1.7,1-3.8,1.6-5.9,1.6h-96.1c-2.2,0-4.2-0.5-5.9-1.6V116H454z"/>
    <path class="st4" d="M454,33.6V38H346v-4.4c1.7-1,3.8-1.6,5.9-1.6h96.1C450.2,32,452.3,32.5,454,33.6z"/>
	<rect x="394" y="50" class="st4" width="60" height="36"/>
	<rect x="400" y="56" class="st6" width="30" height="6"/>
</g>
</svg>
